<?xml version="1.0" encoding="UTF-8"?>
<svg version="1.1" xmlns="http://www.w3.org/2000/svg" width="228" height="161">
<path d="M0 0 C1.58962555 0.00848969 1.58962555 0.00848969 3.21136475 0.01715088 C6.59449528 0.0395326 9.97656484 0.08973402 13.359375 0.140625 C15.65363053 0.1606876 17.94790267 0.17893879 20.2421875 0.1953125 C25.86494503 0.2394032 31.48708421 0.30633364 37.109375 0.390625 C37.109375 1.050625 37.109375 1.710625 37.109375 2.390625 C38.099375 2.720625 39.089375 3.050625 40.109375 3.390625 C41.28235164 6.90955492 41.27147016 10.0997591 41.27734375 13.76171875 C41.28233635 14.83982567 41.28233635 14.83982567 41.28742981 15.93971252 C41.29248793 17.45858115 41.29483848 18.97746086 41.29467773 20.49633789 C41.29686367 22.81610472 41.3150291 25.13539544 41.33398438 27.45507812 C41.33691867 28.93229004 41.33890322 30.40950422 41.33984375 31.88671875 C41.34702927 32.57849716 41.35421478 33.27027557 41.36161804 33.98301697 C41.34449535 37.6044245 41.23667017 40.38761915 39.109375 43.390625 C35.97071463 45.48306525 35.20736919 45.64682325 31.62548828 45.68115234 C30.72089874 45.69391205 29.8163092 45.70667175 28.88430786 45.71981812 C27.90928314 45.72204376 26.93425842 45.72426941 25.9296875 45.7265625 C24.92477264 45.7332193 23.91985779 45.7398761 22.88449097 45.74673462 C20.75781078 45.75686314 18.63109881 45.76155158 16.50439453 45.76123047 C13.25369734 45.76559903 10.00436274 45.80190451 6.75390625 45.83984375 C4.68750464 45.84571279 2.62109659 45.8496816 0.5546875 45.8515625 C-0.41628876 45.86593353 -1.38726501 45.88030457 -2.38766479 45.89511108 C-6.49204723 45.86738521 -9.27350079 45.68938803 -13.00415039 43.88330078 C-15.6445403 40.39444599 -15.5913925 37.25363758 -15.51953125 33.046875 C-15.52194321 32.24076782 -15.52435516 31.43466064 -15.52684021 30.60412598 C-15.5258624 28.90286328 -15.51248428 27.20156851 -15.48754883 25.50048828 C-15.45323499 22.89896381 -15.46689104 20.3008363 -15.48632812 17.69921875 C-15.47942944 16.0442564 -15.46975685 14.3893028 -15.45703125 12.734375 C-15.46199112 11.95823853 -15.46695099 11.18210205 -15.47206116 10.38244629 C-15.40178182 7.15366401 -15.08437979 4.74775674 -13.53588867 1.89355469 C-9.21703829 -0.56023792 -4.87455286 -0.09777149 0 0 Z M1.109375 14.390625 C3.089375 15.380625 3.089375 15.380625 5.109375 16.390625 C4.779375 15.730625 4.449375 15.070625 4.109375 14.390625 C3.119375 14.390625 2.129375 14.390625 1.109375 14.390625 Z M15.171875 16.203125 C12.31255435 20.62207509 12.66196099 24.27022026 13.109375 29.390625 C13.769375 29.390625 14.429375 29.390625 15.109375 29.390625 C15.109375 27.410625 15.109375 25.430625 15.109375 23.390625 C19.729375 23.390625 24.349375 23.390625 29.109375 23.390625 C28.50093011 18.76548685 28.50093011 18.76548685 26.984375 16.640625 C22.8357824 13.8748966 19.3881238 13.60160978 15.171875 16.203125 Z M-1.890625 16.390625 C-2.220625 17.710625 -2.550625 19.030625 -2.890625 20.390625 C-1.900625 20.885625 -1.900625 20.885625 -0.890625 21.390625 C-0.890625 19.740625 -0.890625 18.090625 -0.890625 16.390625 C-1.220625 16.390625 -1.550625 16.390625 -1.890625 16.390625 Z M-0.890625 21.390625 C-0.560625 22.050625 -0.230625 22.710625 0.109375 23.390625 C1.099375 23.060625 2.089375 22.730625 3.109375 22.390625 C1.789375 22.060625 0.469375 21.730625 -0.890625 21.390625 Z M3.109375 23.390625 C4.099375 24.875625 4.099375 24.875625 5.109375 26.390625 C4.734375 29.578125 4.734375 29.578125 4.109375 32.390625 C5.099375 32.060625 6.089375 31.730625 7.109375 31.390625 C7.87893636 29.04528549 7.87893636 29.04528549 8.109375 26.390625 C6.90018618 24.51422081 6.90018618 24.51422081 5.109375 23.390625 C4.449375 23.390625 3.789375 23.390625 3.109375 23.390625 Z M27.109375 28.390625 C25.624375 30.370625 25.624375 30.370625 24.109375 32.390625 C25.429375 31.730625 26.749375 31.070625 28.109375 30.390625 C27.779375 29.730625 27.449375 29.070625 27.109375 28.390625 Z M-2.890625 29.390625 C-2.890625 30.050625 -2.890625 30.710625 -2.890625 31.390625 C-2.230625 31.060625 -1.570625 30.730625 -0.890625 30.390625 C-1.550625 30.060625 -2.210625 29.730625 -2.890625 29.390625 Z M15.109375 29.390625 C15.109375 30.050625 15.109375 30.710625 15.109375 31.390625 C15.769375 31.060625 16.429375 30.730625 17.109375 30.390625 C16.449375 30.060625 15.789375 29.730625 15.109375 29.390625 Z M17.109375 31.390625 C17.439375 32.050625 17.769375 32.710625 18.109375 33.390625 C20.089375 33.390625 22.069375 33.390625 24.109375 33.390625 C24.109375 33.060625 24.109375 32.730625 24.109375 32.390625 C21.799375 32.060625 19.489375 31.730625 17.109375 31.390625 Z M0.109375 32.390625 C4.109375 33.390625 4.109375 33.390625 4.109375 33.390625 Z " fill="#475EB1" transform="translate(155.890625,48.609375)"/>
<path d="M0 0 C9.04950495 0 9.04950495 0 12.875 1.375 C13.98488281 1.75785156 13.98488281 1.75785156 15.1171875 2.1484375 C17 3 17 3 19 5 C19.98107966 9.02717377 20.27732401 12.84028141 19.3125 16.875 C17.82092468 19.28993147 16.43403705 20.5547905 14 22 C13.34 22 12.68 22 12 22 C12.721875 22.97582031 13.44375 23.95164062 14.1875 24.95703125 C15.12537208 26.24191599 16.06285176 27.52708722 17 28.8125 C17.47695312 29.45509766 17.95390625 30.09769531 18.4453125 30.75976562 C19.12207031 31.69272461 19.12207031 31.69272461 19.8125 32.64453125 C20.23144531 33.21534424 20.65039062 33.78615723 21.08203125 34.37426758 C22 36 22 36 22 39 C18.80859375 39.4375 18.80859375 39.4375 15 39 C12.81735385 36.98455759 11.49552439 34.58193612 10.0625 32 C9.66482422 31.33226563 9.26714844 30.66453125 8.85742188 29.9765625 C7.88192307 28.33114283 6.93779732 26.66719524 6 25 C5.67 29.62 5.34 34.24 5 39 C3.35 39 1.7 39 0 39 C0 26.13 0 13.26 0 0 Z M5 6 C5 9.96 5 13.92 5 18 C9.16723328 17.55357925 9.16723328 17.55357925 12.875 15.75 C14.46848049 13.27125256 14.57661638 11.88308189 14 9 C10.72821183 6.36439287 9.27931853 6 5 6 Z " fill="#707A9A" transform="translate(104,48)"/>
<path d="M0 0 C1.98 0 3.96 0 6 0 C6.33 5.61 6.66 11.22 7 17 C7.33 16.67 7.66 16.34 8 16 C11.38168693 15.56163318 14.62344355 15.51314767 18 16 C21.0625 18.4375 21.0625 18.4375 23 21 C23.33 21.33 23.66 21.66 24 22 C25.23328744 34.31525605 25.23328744 34.31525605 22.0625 38.75 C18.05328303 41.69554716 14.90096818 42.12520722 10 42 C7.25 41.5625 7.25 41.5625 5 41 C3.35 41 1.7 41 0 41 C0 27.47 0 13.94 0 0 Z M8 22 C5.54277367 25.68583949 5.31244246 28.71995428 6 33 C7.44014926 35.69138543 7.44014926 35.69138543 10 37 C13.10293293 37.24677006 13.10293293 37.24677006 16 36 C18.71278601 33.02468631 19 31.41199556 19 27.375 C18.31183144 23.86748018 18.31183144 23.86748018 15.5625 22.0625 C12.21659528 20.67517365 11.47591001 20.84136333 8 22 Z " fill="#9DA6BA" transform="translate(75,46)"/>
<path d="M0 0 C8.69014976 -0.45560008 8.69014976 -0.45560008 12.875 1 C16.44083863 4.35608341 18.73568503 8.18064032 19.19921875 13.125 C18.95193232 16.85549242 18.04320212 18.94479729 15.75 21.875 C11.55535054 25.11632004 8.7849153 26.22624537 3.5 25.9375 C-1.03365545 25.31790042 -3.15432923 23.64601568 -6 20 C-7.85412674 16.29174653 -7.45790469 12.04688735 -7 8 C-5.96349982 5.3830936 -4.95171866 4.11900883 -3 2 C-2.01 2 -1.02 2 0 2 C0 1.34 0 0.68 0 0 Z M1 6 C-1.27908821 8.27908821 -1.95286865 9.75386964 -2.5625 12.9375 C-2.23042719 16.26976169 -2.23042719 16.26976169 0.6875 18.9375 C3.72219555 21.20057218 3.72219555 21.20057218 6.625 21.125 C9.85248259 19.59619246 11.21427961 18.09066991 13 15 C12.93550016 11.77500781 12.58491853 9.84813186 10.75 7.1875 C7.38199459 4.90206776 4.80729771 4.73090076 1 6 Z " fill="#8F98AF" transform="translate(53,62)"/>
<path d="M0 0 C1.65 0.33 3.3 0.66 5 1 C5.07433779 5.89295147 5.12869027 10.78557183 5.16479492 15.67895508 C5.17985114 17.34242481 5.20030063 19.00585505 5.22631836 20.66918945 C5.26284207 23.06471522 5.27975782 25.45971467 5.29296875 27.85546875 C5.30845261 28.5952446 5.32393646 29.33502045 5.33988953 30.09721375 C5.34134432 34.59366278 4.80390758 37.445595 2 41 C-1.48804095 43.32536063 -2.90140754 43.33457898 -7 43 C-9.375 42 -9.375 42 -11 41 C-10.67 39.35 -10.34 37.7 -10 36 C-7.37886292 36 -5.49064888 36.31292445 -3 37 C-1.24775924 32.4318776 -0.70695142 28.51370732 -0.5859375 23.6328125 C-0.56657135 22.95322479 -0.5472052 22.27363708 -0.5272522 21.57345581 C-0.46794901 19.42409421 -0.42127109 17.27467759 -0.375 15.125 C-0.33677468 13.6588321 -0.29772036 12.19268557 -0.2578125 10.7265625 C-0.16228956 7.15123836 -0.07807874 3.57575252 0 0 Z " fill="#586488" transform="translate(37,48)"/>
<path d="M0 0 C2.9375 0.25 2.9375 0.25 4.8125 1.75 C5.18375 2.245 5.555 2.74 5.9375 3.25 C2.98085481 4.7283226 0.19520263 4.31032783 -3.0625 4.25 C-3.206875 4.889375 -3.35125 5.52875 -3.5 6.1875 C-4.0625 8.25 -4.0625 8.25 -5.0625 9.25 C-5.7129832 14.57614818 -5.7129832 14.57614818 -3.5625 19.125 C-0.12474996 20.67198752 3.25149489 21.45136556 6.9375 22.25 C6.9375 22.58 6.9375 22.91 6.9375 23.25 C5.20869018 23.30449838 3.47937288 23.34301688 1.75 23.375 C0.78707031 23.39820312 -0.17585938 23.42140625 -1.16796875 23.4453125 C-4.2801615 23.23531299 -6.32958597 22.75097869 -9.0625 21.25 C-12.01140983 17.08578187 -11.693227 12.13428834 -11.0625 7.25 C-8.42820561 1.88732929 -8.42820561 1.88732929 -5.1875 0.375 C-3.45681283 0.27319487 -1.72793104 0.1410556 0 0 Z " fill="#707A99" transform="translate(57.0625,62.75)"/>
<path d="M0 0 C1.65 0 3.3 0 5 0 C6.24497833 2.48995665 6.12934372 4.18994911 6.1328125 6.97265625 C6.13410156 7.95427734 6.13539063 8.93589844 6.13671875 9.94726562 C6.13285156 10.97529297 6.12898437 12.00332031 6.125 13.0625 C6.12886719 14.09439453 6.13273438 15.12628906 6.13671875 16.18945312 C6.13542969 17.16978516 6.13414062 18.15011719 6.1328125 19.16015625 C6.13168457 20.06386963 6.13055664 20.96758301 6.12939453 21.89868164 C6 24 6 24 5 25 C3.35 25 1.7 25 0 25 C0 16.75 0 8.5 0 0 Z " fill="#C2C5D0" transform="translate(131,62)"/>
<path d="M0 0 C0.99 0 1.98 0 3 0 C3.02505615 0.59014893 3.0501123 1.18029785 3.07592773 1.78833008 C3.19200052 4.46326814 3.31467572 7.1378638 3.4375 9.8125 C3.47681641 10.74126953 3.51613281 11.67003906 3.55664062 12.62695312 C3.59853516 13.51962891 3.64042969 14.41230469 3.68359375 15.33203125 C3.72025146 16.15421143 3.75690918 16.9763916 3.79467773 17.82348633 C3.93427772 20.17905178 3.93427772 20.17905178 5 23 C5.04367578 24.45767916 5.03980314 25.91720995 5 27.375 C4.95621969 30.72966647 5.15626709 33.73053497 6 37 C5.01 36.67 4.02 36.34 3 36 C3 36.99 3 37.98 3 39 C2.01 39 1.02 39 0 39 C0 26.13 0 13.26 0 0 Z " fill="#0D1E57" transform="translate(76,47)"/>
<path d="M0 0 C0.33 0 0.66 0 1 0 C1.33 5.61 1.66 11.22 2 17 C2.33 16.67 2.66 16.34 3 16 C6.38168693 15.56163318 9.62344355 15.51314767 13 16 C16.0625 18.4375 16.0625 18.4375 18 21 C18.33 21.33 18.66 21.66 19 22 C19.07258946 24.18639453 19.08373783 26.37500389 19.0625 28.5625 C19.05347656 29.76003906 19.04445313 30.95757812 19.03515625 32.19140625 C19.02355469 33.11824219 19.01195313 34.04507813 19 35 C18.67 35 18.34 35 18 35 C17.67 32.36 17.34 29.72 17 27 C16.01 29.31 15.02 31.62 14 34 C12.89131683 30.67395049 12.45822468 27.46941546 12 24 C11.071875 23.690625 10.14375 23.38125 9.1875 23.0625 C7.125 22.375 5.0625 21.6875 3 21 C4.7015625 20.5359375 4.7015625 20.5359375 6.4375 20.0625 C9.78775099 19.37075469 9.78775099 19.37075469 11 18 C6.39790775 17.82299645 4.21629134 17.89185433 0 20 C0 13.4 0 6.8 0 0 Z " fill="#C0C4D1" transform="translate(80,46)"/>
<path d="M0 0 C5 0 5 0 7 1 C7 1.66 7 2.32 7 3 C5.68 3 4.36 3 3 3 C3.14151828 5.0836309 3.28837936 7.16689938 3.4375 9.25 C3.55931641 10.99023438 3.55931641 10.99023438 3.68359375 12.765625 C3.93247787 15.30977376 4.28114942 17.55953248 5 20 C4.34 20 3.68 20 3 20 C3 25.28 3 30.56 3 36 C2.01 36 1.02 36 0 36 C0 24.12 0 12.24 0 0 Z " fill="#0D2158" transform="translate(105,50)"/>
<path d="M0 0 C1.5 1.125 1.5 1.125 3 3 C3.1875 6 3.1875 6 3 9 C3 9.99 3 10.98 3 12 C2 14.1875 2 14.1875 1 16 C0.34 15.67 -0.32 15.34 -1 15 C-1.33 15 -1.66 15 -2 15 C-2.33 15.33 -2.66 15.66 -3 16 C-9.6 15.4 -9.6 15.4 -12 13 C-12 11.02 -12 9.04 -12 7 C-7.38 7 -2.76 7 2 7 C1.34 4.69 0.68 2.38 0 0 Z " fill="#9FA9CE" transform="translate(183,65)"/>
<path d="M0 0 C0.33 0 0.66 0 1 0 C1.33 10.89 1.66 21.78 2 33 C2.99 33.33 3.98 33.66 5 34 C5 32.35 5 30.7 5 29 C6.3921875 29.309375 6.3921875 29.309375 7.8125 29.625 C11.15173402 30.36692966 11.15173402 30.36692966 14 28 C14.33 28.66 14.66 29.32 15 30 C14.67 30.66 14.34 31.32 14 32 C13.01 32 12.02 32 11 32 C11 32.66 11 33.32 11 34 C7.63316085 36.43160605 6.26649636 37 2 37 C-0.46105545 33.30841682 -0.25575793 30.53376446 -0.1953125 26.26953125 C-0.1924826 25.51911057 -0.18965271 24.76868988 -0.18673706 23.99552917 C-0.17555062 21.60102325 -0.15044928 19.20689269 -0.125 16.8125 C-0.11496819 15.18815645 -0.10584269 13.56380703 -0.09765625 11.93945312 C-0.07561637 7.959491 -0.0410974 3.97980912 0 0 Z " fill="#364EA4" transform="translate(142,55)"/>
<path d="M0 0 C3 2 3 2 6 4 C6.33 3.01 6.66 2.02 7 1 C8.17544805 2.43032837 9.34010262 3.86953242 10.5 5.3125 C11.1496875 6.11300781 11.799375 6.91351563 12.46875 7.73828125 C14 10 14 10 14 13 C10.9375 13.6875 10.9375 13.6875 7 13 C4.03890231 9.51870947 0 4.74162575 0 0 Z " fill="#A0A6BA" transform="translate(112,74)"/>
<path d="M0 0 C1.32 0 2.64 0 4 0 C4.33 6.27 4.66 12.54 5 19 C5.99 18.34 6.98 17.68 8 17 C10.04296875 16.8046875 10.04296875 16.8046875 12.1875 16.875 C13.445625 16.91625 14.70375 16.9575 16 17 C14.875 19 14.875 19 13 21 C11.02 21 9.04 21 7 21 C6.34 24.96 5.68 28.92 5 33 C4.67 33 4.34 33 4 33 C4.01160156 32.21753906 4.02320312 31.43507813 4.03515625 30.62890625 C4.04417969 29.61699219 4.05320312 28.60507813 4.0625 27.5625 C4.07410156 26.55316406 4.08570312 25.54382813 4.09765625 24.50390625 C4.28612676 22.05978933 4.28612676 22.05978933 3 21 C2.91330568 19.5112814 2.89296506 18.018555 2.90234375 16.52734375 C2.90717773 15.17866211 2.90717773 15.17866211 2.91210938 13.80273438 C2.92048828 12.85720703 2.92886719 11.91167969 2.9375 10.9375 C2.94201172 9.98810547 2.94652344 9.03871094 2.95117188 8.06054688 C2.9629989 5.70696935 2.97947975 3.35351523 3 1 C2.01 0.67 1.02 0.34 0 0 Z " fill="#616C8B" transform="translate(76,46)"/>
<path d="M0 0 C0 3 0 3 -2 6 C-1.01 6.66 -0.02 7.32 1 8 C1.6875 10.625 1.6875 10.625 2 13 C1.01 13.495 1.01 13.495 0 14 C-6.70459519 9.22100656 -6.70459519 9.22100656 -7.9375 4.125 C-7.958125 3.09375 -7.97875 2.0625 -8 1 C-2.25 -1.125 -2.25 -1.125 0 0 Z " fill="#526087" transform="translate(117,65)"/>
<path d="M0 0 C0.66 1.65 1.32 3.3 2 5 C-2.29 5 -6.58 5 -11 5 C-11 3.68 -11 2.36 -11 1 C-10.34 1 -9.68 1 -9 1 C-9 0.34 -9 -0.32 -9 -1 C-5.15510125 -2.28163292 -3.62830387 -1.69835501 0 0 Z " fill="#8592C3" transform="translate(182,66)"/>
<path d="M0 0 C8.83043047 -0.46295461 8.83043047 -0.46295461 13 1.1875 C15.31696033 3.2872453 16.11593727 5.02633445 17 8 C16.01 7.67 15.02 7.34 14 7 C14 9.64 14 12.28 14 15 C12.5268006 12.25002779 11.77595125 10.10380501 11 7 C7.7 6.67 4.4 6.34 1 6 C3 4 3 4 6.125 3.875 C7.07375 3.91625 8.0225 3.9575 9 4 C7.04366025 1.58878141 7.04366025 1.58878141 3.375 1.875 C1.704375 1.936875 1.704375 1.936875 0 2 C0 1.34 0 0.68 0 0 Z " fill="#8891AA" transform="translate(53,62)"/>
<path d="M0 0 C0.99 0 1.98 0 3 0 C3 7.26 3 14.52 3 22 C2.01 22 1.02 22 0 22 C0 14.74 0 7.48 0 0 Z " fill="#091E59" transform="translate(132,64)"/>
<path d="M0 0 C1.9375 0.5625 1.9375 0.5625 4 2 C5.23274001 6.66680146 5.21567946 9.69897516 3 14 C1.35 13.67 -0.3 13.34 -2 13 C-1.85769192 11.58297487 -1.71099254 10.1663904 -1.5625 8.75 C-1.48128906 7.96109375 -1.40007812 7.1721875 -1.31640625 6.359375 C-1.02365007 4.17635361 -0.57935581 2.1226818 0 0 Z " fill="#47557F" transform="translate(67,68)"/>
<path d="M0 0 C1.9453125 0.73046875 1.9453125 0.73046875 4 2 C5.33339198 5.9005547 5.26248905 9.9023185 4.3125 13.875 C2.82092468 16.28993147 1.43403705 17.5547905 -1 19 C-1.66 19 -2.32 19 -3 19 C-3.33 19.66 -3.66 20.32 -4 21 C-4 18 -4 18 -3 17 C-3.66 16.34 -4.32 15.68 -5 15 C-4.34 14.67 -3.68 14.34 -3 14 C-2.31527335 12.11235097 -2.31527335 12.11235097 -1.875 9.9375 C-1.70742187 9.20402344 -1.53984375 8.47054687 -1.3671875 7.71484375 C-1.18542969 6.86599609 -1.18542969 6.86599609 -1 6 C-0.67 6 -0.34 6 0 6 C-0.33 8.97 -0.66 11.94 -1 15 C-0.34 15 0.32 15 1 15 C2.23184766 12.53630468 2.16732342 10.8105499 2.1875 8.0625 C2.20167969 7.18722656 2.21585937 6.31195313 2.23046875 5.41015625 C2.16663349 2.73755665 2.16663349 2.73755665 0 0 Z " fill="#9299B0" transform="translate(119,51)"/>
<path d="M0 0 C7.61289001 4.07523725 7.61289001 4.07523725 9.125 7.6875 C9 10 9 10 7 12 C4.5625 11.625 4.5625 11.625 2 11 C1.01 11 0.02 11 -1 11 C-1 10.01 -1 9.02 -1 8 C1.475 8.495 1.475 8.495 4 9 C3.2981424 6.1490712 3.2981424 6.1490712 2 5 C1.34 4.67 0.68 4.34 0 4 C0 2.68 0 1.36 0 0 Z " fill="#9BA6CF" transform="translate(153,69)"/>
<path d="M0 0 C0.66 0 1.32 0 2 0 C2.433125 0.94875 2.86625 1.8975 3.3125 2.875 C5.10723032 6.19857467 6.41469268 7.50894879 10.04296875 8.6328125 C12.02864583 9.08854167 14.01432292 9.54427083 16 10 C16 10.33 16 10.66 16 11 C6.16288175 11.7752545 6.16288175 11.7752545 1.8125 8.875 C-0.26035293 5.58702639 -0.44359263 3.81489658 0 0 Z " fill="#102357" transform="translate(48,75)"/>
<path d="M0 0 C1.98 0.99 3.96 1.98 6 3 C5.67 3.99 5.34 4.98 5 6 C6.65 6 8.3 6 10 6 C8 8 8 8 5.125 8.25 C2.14403168 8.01152253 0.5107442 7.54507335 -2 6 C-1.125 1.125 -1.125 1.125 0 0 Z " fill="#79849E" transform="translate(28,83)"/>
<path d="M0 0 C1.66611905 -0.042721 3.33382885 -0.04063832 5 0 C6 1 6 1 6.125 3.5 C6 6 6 6 5 7 C3.33382885 7.04063832 1.66611905 7.042721 0 7 C-1.125 2.25 -1.125 2.25 0 0 Z " fill="#CFD1DC" transform="translate(131,51)"/>
<path d="M0 0 C0.99 0.33 1.98 0.66 3 1 C2.67 2.32 2.34 3.64 2 5 C0.68 5 -0.64 5 -2 5 C-2 5.66 -2 6.32 -2 7 C-1.360625 7.12375 -0.72125 7.2475 -0.0625 7.375 C0.618125 7.58125 1.29875 7.7875 2 8 C2.33 8.66 2.66 9.32 3 10 C-2.75 8.125 -2.75 8.125 -5 7 C-5 5.35 -5 3.7 -5 2 C-3.35 1.67 -1.7 1.34 0 1 C0 0.67 0 0.34 0 0 Z " fill="#B3BBD9" transform="translate(160,63)"/>
<path d="M0 0 C0.33 0 0.66 0 1 0 C1 10.89 1 21.78 1 33 C-0.32 33.66 -1.64 34.32 -3 35 C-2.68289062 34.14277344 -2.36578125 33.28554687 -2.0390625 32.40234375 C-0.29332839 26.29227438 -0.52779727 19.86857058 -0.375 13.5625 C-0.33632813 12.25861328 -0.29765625 10.95472656 -0.2578125 9.61132812 C-0.16393299 6.40769001 -0.07824846 3.20405168 0 0 Z " fill="#293758" transform="translate(37,51)"/>
<path d="M0 0 C0.66 0.33 1.32 0.66 2 1 C1.03644647 10.41002278 1.03644647 10.41002278 0 15 C-0.66 14.01 -1.32 13.02 -2 12 C-2.99 11.67 -3.98 11.34 -5 11 C-8 10 -8 10 -10 7 C-8.906875 7.226875 -7.81375 7.45375 -6.6875 7.6875 C-3.1613185 8.34124179 -3.1613185 8.34124179 -1.0625 6.875 C0.30361625 4.46420662 0.22111261 2.72705554 0 0 Z " fill="#9BA7D2" transform="translate(163,73)"/>
<path d="M0 0 C0.33 0 0.66 0 1 0 C1 3.3 1 6.6 1 10 C0.01 10.33 -0.98 10.66 -2 11 C-2.99 12.485 -2.99 12.485 -4 14 C-4.66 14 -5.32 14 -6 14 C-6 13.01 -6 12.02 -6 11 C-5.34 11 -4.68 11 -4 11 C-3.896875 10.29875 -3.79375 9.5975 -3.6875 8.875 C-2.90640997 5.60862353 -1.57941257 2.9528148 0 0 Z " fill="#172A5B" transform="translate(97,72)"/>
<path d="M0 0 C0 2.77996107 -0.21297929 5.42492567 -0.5 8.1875 C-0.5928125 9.08855469 -0.685625 9.98960938 -0.78125 10.91796875 C-0.88953125 11.94857422 -0.88953125 11.94857422 -1 13 C-0.34 13 0.32 13 1 13 C1 13.66 1 14.32 1 15 C0.01 15 -0.98 15 -2 15 C-2.33 12.36 -2.66 9.72 -3 7 C-3.66 7 -4.32 7 -5 7 C-4.67 5.02 -4.34 3.04 -4 1 C-2.68 0.67 -1.36 0.34 0 0 Z " fill="#929CCB" transform="translate(170,65)"/>
<path d="M0 0 C1.875 1.5 1.875 1.5 3 3 C0.56612247 4.21693876 -1.41838846 4.31959896 -4.125 4.5625 C-5.03507812 4.64628906 -5.94515625 4.73007813 -6.8828125 4.81640625 C-7.93082031 4.90728516 -7.93082031 4.90728516 -9 5 C-9 4.01 -9 3.02 -9 2 C-5.53076119 -0.31282587 -4.07794425 -0.42478586 0 0 Z " fill="#18275B" transform="translate(60,63)"/>
<path d="M0 0 C0.5775 0.45375 1.155 0.9075 1.75 1.375 C3.7800333 2.84113516 5.73539843 3.94857784 8 5 C6.02 5 4.04 5 2 5 C2 5.66 2 6.32 2 7 C4.31 7.33 6.62 7.66 9 8 C9 8.33 9 8.66 9 9 C1.375 8.125 1.375 8.125 -2 7 C-2 6.01 -2 5.02 -2 4 C-1.34 4 -0.68 4 0 4 C0 2.68 0 1.36 0 0 Z " fill="#99A0B5" transform="translate(81,79)"/>
<path d="M0 0 C0.99 0 1.98 0 3 0 C3.66 3.96 4.32 7.92 5 12 C4.01 11.67 3.02 11.34 2 11 C1.67 11.66 1.34 12.32 1 13 C0.1276588 10.00519083 -0.10829766 7.36424089 -0.0625 4.25 C-0.05347656 3.45078125 -0.04445313 2.6515625 -0.03515625 1.828125 C-0.02355469 1.22484375 -0.01195313 0.6215625 0 0 Z " fill="#192B61" transform="translate(77,72)"/>
<path d="M0 0 C1.32 0.66 2.64 1.32 4 2 C3.34 2.66 2.68 3.32 2 4 C1.67 4.66 1.34 5.32 1 6 C-2 5 -5 4 -8 3 C-6.865625 2.690625 -5.73125 2.38125 -4.5625 2.0625 C-1.21224901 1.37075469 -1.21224901 1.37075469 0 0 Z " fill="#828CA8" transform="translate(91,64)"/>
<path d="M0 0 C10.55808656 -0.55353075 10.55808656 -0.55353075 15 3 C14.67 3.66 14.34 4.32 14 5 C12.989375 4.505 11.97875 4.01 10.9375 3.5 C7.22011812 1.88407686 4.06043343 1.75140203 0 2 C0 1.34 0 0.68 0 0 Z " fill="#B5B9C9" transform="translate(53,62)"/>
<path d="M0 0 C0.99 0.33 1.98 0.66 3 1 C2.34 1.66 1.68 2.32 1 3 C1.99 3.33 2.98 3.66 4 4 C3.34 5.32 2.68 6.64 2 8 C1.67 7.01 1.34 6.02 1 5 C-0.32 5.33 -1.64 5.66 -3 6 C-1.125 1.125 -1.125 1.125 0 0 Z " fill="#9FA6BA" transform="translate(50,64)"/>
<path d="M0 0 C2.375 0.25 2.375 0.25 5 1 C6.3125 3.0625 6.3125 3.0625 7 5 C5.35 5 3.7 5 2 5 C1.34 3.35 0.68 1.7 0 0 Z " fill="#162558" transform="translate(118,81)"/>
<path d="M0 0 C2.64 0 5.28 0 8 0 C6.515 1.98 6.515 1.98 5 4 C3.35 3.67 1.7 3.34 0 3 C0 2.01 0 1.02 0 0 Z " fill="#1D2B5D" transform="translate(84,63)"/>
<path d="M0 0 C2.0625 0.4375 2.0625 0.4375 4 1 C4 1.66 4 2.32 4 3 C4.66 2.67 5.32 2.34 6 2 C6 2.99 6 3.98 6 5 C4.35 5 2.7 5 1 5 C0.34 3.68 -0.32 2.36 -1 1 C-0.67 0.67 -0.34 0.34 0 0 Z " fill="#374FA3" transform="translate(173,74)"/>
<path d="M0 0 C0 1.32 0 2.64 0 4 C-1.98 4 -3.96 4 -6 4 C-5.67 3.01 -5.34 2.02 -5 1 C-3 0 -3 0 0 0 Z " fill="#203260" transform="translate(39,85)"/>
<path d="M0 0 C0.66 0 1.32 0 2 0 C2 0.66 2 1.32 2 2 C2.639375 2.103125 3.27875 2.20625 3.9375 2.3125 C4.618125 2.539375 5.29875 2.76625 6 3 C6.33 3.99 6.66 4.98 7 6 C6.01 6.495 6.01 6.495 5 7 C3.29115995 5.37660195 1.62553283 3.70680947 0 2 C0 1.34 0 0.68 0 0 Z " fill="#152559" transform="translate(112,72)"/>
<path d="M0 0 C-0.33 0.99 -0.66 1.98 -1 3 C-1.33 2.34 -1.66 1.68 -2 1 C-2.66 1 -3.32 1 -4 1 C-4.33 1.66 -4.66 2.32 -5 3 C-5.99 2.67 -6.98 2.34 -8 2 C-8 1.34 -8 0.68 -8 0 C-4.94736336 -0.98120464 -3.05263664 -0.98120464 0 0 Z " fill="#324FA5" transform="translate(166,68)"/>
<path d="M0 0 C1.98 0.495 1.98 0.495 4 1 C4 1.99 4 2.98 4 4 C2.35 4 0.7 4 -1 4 C-0.67 2.68 -0.34 1.36 0 0 Z " fill="#182A5A" transform="translate(132,52)"/>
<path d="M0 0 C0.33 0 0.66 0 1 0 C1 2.31 1 4.62 1 7 C-0.98 7.99 -0.98 7.99 -3 9 C-2.01 6.03 -1.02 3.06 0 0 Z " fill="#7D85A0" transform="translate(37,77)"/>
<path d="M0 0 C0.99 0 1.98 0 3 0 C3.33 1.65 3.66 3.3 4 5 C2.0625 4.6875 2.0625 4.6875 0 4 C-0.33 3.01 -0.66 2.02 -1 1 C-0.67 0.67 -0.34 0.34 0 0 Z " fill="#162658" transform="translate(93,66)"/>
</svg>
